<?xml version="1.0" encoding="UTF-8" standalone="no"?>
<!-- Created with Inkscape (http://www.inkscape.org/) -->

<svg
   xmlns:dc="http://purl.org/dc/elements/1.1/"
   xmlns:cc="http://creativecommons.org/ns#"
   xmlns:rdf="http://www.w3.org/1999/02/22-rdf-syntax-ns#"
   xmlns:svg="http://www.w3.org/2000/svg"
   xmlns="http://www.w3.org/2000/svg"
   xmlns:sodipodi="http://sodipodi.sourceforge.net/DTD/sodipodi-0.dtd"
   xmlns:inkscape="http://www.inkscape.org/namespaces/inkscape"
   width="500mm"
   height="210mm"
   viewBox="0 0 500 210"
   version="1.1"
   id="svg836"
   inkscape:version="0.92.5 (2060ec1f9f, 2020-04-08)"
   sodipodi:docname="hyb_logo.svg">
  <defs
     id="defs830" />
  <sodipodi:namedview
     id="base"
     pagecolor="#ffffff"
     bordercolor="#666666"
     borderopacity="1.0"
     inkscape:pageopacity="0.0"
     inkscape:pageshadow="2"
     inkscape:zoom="0.35"
     inkscape:cx="-251.72243"
     inkscape:cy="773.06391"
     inkscape:document-units="mm"
     inkscape:current-layer="layer1"
     showgrid="false"
     inkscape:window-width="1920"
     inkscape:window-height="1015"
     inkscape:window-x="0"
     inkscape:window-y="0"
     inkscape:window-maximized="1" />
  <metadata
     id="metadata833">
    <rdf:RDF>
      <cc:Work
         rdf:about="">
        <dc:format>image/svg+xml</dc:format>
        <dc:type
           rdf:resource="http://purl.org/dc/dcmitype/StillImage" />
        <dc:title></dc:title>
      </cc:Work>
    </rdf:RDF>
  </metadata>
  <g
     inkscape:label="Layer 1"
     inkscape:groupmode="layer"
     id="layer1"
     transform="translate(0,-87)">
    <path
       inkscape:connector-curvature="0"
       id="path1389"
       style="font-style:normal;font-weight:normal;font-size:14.57858753px;line-height:1.25;font-family:sans-serif;letter-spacing:0px;word-spacing:0px;fill:#ffffff;fill-opacity:1;stroke:none;stroke-width:4.69778538"
       d="m 182.22048,177.31833 v 62.02554 h -16.88261 v -61.47504 q 0,-14.58877 -5.68872,-21.8373 -5.68874,-7.24846 -17.0662,-7.24846 -13.67129,0 -21.56211,8.71655 -7.89082,8.71655 -7.89082,23.76421 v 58.08004 H 96.155603 V 96.57524 h 16.974417 v 55.9697 q 6.05575,-9.26712 14.22183,-13.8548 8.25781,-4.58779 18.993,-4.58779 17.70846,0 26.79207,11.01058 9.08356,10.9186 9.08356,32.2054 z"
       inkscape:export-xdpi="150"
       inkscape:export-ydpi="150" />
    <path
       inkscape:connector-curvature="0"
       id="path1391"
       style="font-style:normal;font-weight:normal;font-size:14.57858753px;line-height:1.25;font-family:sans-serif;letter-spacing:0px;word-spacing:0px;fill:#ffffff;fill-opacity:1;stroke:none;stroke-width:4.69778538"
       d="m 248.92549,248.88627 q 7.15679,18.35069 13.94649,23.94762 6.78983,5.597 18.16718,5.597 h 13.48786 v -14.13 h -9.90948 q -6.97321,0 -10.82682,-3.30319 -3.85373,-3.30307 -8.53316,-15.59819 l -3.02786,-7.70726 41.56438,-101.11254 H 285.9021 l -32.11376,80.3762 -32.11371,-80.3762 h -17.89199 z"
       inkscape:export-xdpi="150"
       inkscape:export-ydpi="150" />
    <path
       inkscape:connector-curvature="0"
       id="path1393"
       style="font-style:normal;font-weight:normal;font-size:14.57858753px;line-height:1.25;font-family:sans-serif;letter-spacing:0px;word-spacing:0px;fill:#ffffff;fill-opacity:1;stroke:none;stroke-width:4.69778538"
       d="m 400.86942,188.05354 q 0,-18.62593 -7.70729,-29.17756 -7.61552,-10.64356 -21.01153,-10.64356 -13.3961,0 -21.1034,10.64356 -7.61552,10.55163 -7.61552,29.17756 0,18.62609 7.61552,29.26944 7.7073,10.55169 21.1034,10.55169 13.39601,0 21.01153,-10.55169 7.70729,-10.64335 7.70729,-29.26944 z M 343.43168,152.1779 q 5.32173,-9.17538 13.3961,-13.57953 8.16603,-4.49602 19.45172,-4.49602 18.71773,0 30.3705,14.86413 11.74444,14.86411 11.74444,39.08706 0,24.22293 -11.74444,39.08701 -11.65277,14.8641 -30.3705,14.8641 -11.28569,0 -19.45172,-4.40405 -8.07437,-4.49602 -13.3961,-13.67131 v 15.41458 H 326.45729 V 96.57524 h 16.97439 z"
       inkscape:export-xdpi="150"
       inkscape:export-ydpi="150" />
    <path
       inkscape:transform-center-y="-3.0343824e-05"
       inkscape:transform-center-x="-7.1702132"
       d="m 337.11115,270.20413 -21.51069,12.4192 -21.51068,12.4192 v -24.8384 -24.83839 l 21.51068,12.41919 z"
       inkscape:randomized="0"
       inkscape:rounded="0"
       inkscape:flatsided="false"
       sodipodi:arg2="1.0471976"
       sodipodi:arg1="0"
       sodipodi:r2="14.340455"
       sodipodi:r1="28.68091"
       sodipodi:cy="270.20413"
       sodipodi:cx="308.43023"
       sodipodi:sides="3"
       id="path1396"
       style="font-style:normal;font-weight:normal;font-size:14.57858753px;line-height:1.25;font-family:sans-serif;letter-spacing:0px;word-spacing:0px;fill:#ffffff;fill-opacity:1;stroke:none;stroke-width:14.82297993;stroke-linecap:square;stroke-linejoin:round;stroke-miterlimit:0;stroke-dasharray:none;stroke-dashoffset:0;stroke-opacity:1"
       sodipodi:type="star"
       inkscape:export-xdpi="150"
       inkscape:export-ydpi="150" />
    <circle
       style="fill:#008000;fill-opacity:1;stroke:none;stroke-width:22.51888084;stroke-linecap:square;stroke-linejoin:round;stroke-miterlimit:0;stroke-dasharray:none;stroke-dashoffset:0;stroke-opacity:1"
       id="path1398"
       cx="206.0378"
       cy="105.53595"
       r="18.503479"
       inkscape:export-xdpi="150"
       inkscape:export-ydpi="150" />
  </g>
</svg>
